<svg width="24" height="24" viewBox="0 0 24 24" fill="none" xmlns="http://www.w3.org/2000/svg">
<g clip-path="url(#clip0_3_283)">
<path d="M24.0001 13.8376L20.9026 10.6201L24.0001 7.9502V13.8376Z" fill="#1F8E95"/>
<path d="M3.10125 10.6201L0 13.8414V7.9502L3.10125 10.6201Z" fill="#1F8E95"/>
<path d="M24 16.7623V19.7248C24 20.4411 23.4188 21.0224 22.7025 21.0224H1.2975C0.581203 21.0224 0 20.4411 0 19.7248V16.7623L4.6387 11.9473L9.9375 16.511C10.4888 16.9836 11.22 17.2461 12 17.2461C12.78 17.2461 13.515 16.9836 14.0662 16.511L19.3612 11.9473L24 16.7623Z" fill="#1F8E95"/>
<path d="M24 4.27129V5.56879L12.6824 15.3188C12.3187 15.6338 11.6812 15.6338 11.3175 15.3188L0 5.56879V4.27129C0 3.55509 0.581156 2.97754 1.2975 2.97754H22.7025C23.4188 2.97754 24 3.55509 24 4.27129Z" fill="#1F8E95"/>
</g>
<defs>
<clipPath id="clip0_3_283">
<rect width="24" height="24" fill="white"/>
</clipPath>
</defs>
</svg>
