<svg width="24" height="24" viewBox="0 0 24 24" fill="none" xmlns="http://www.w3.org/2000/svg">
<path d="M8.81096 4.32975C8.81096 4.32975 8.56346 3.75 8.18546 3.75C7.81346 3.75 7.61996 3.92175 7.49096 4.04025C7.36196 4.15875 5.20346 5.9325 5.20346 5.9325C5.20346 5.9325 4.57571 6.48075 4.62371 7.512C4.66421 8.54325 4.86596 10.011 5.91296 12.0555C6.95246 14.0955 9.55421 17.2125 11.1982 18.3082C11.1982 18.3082 12.7215 19.4767 14.139 19.9515C14.5507 20.0812 15.3742 20.25 15.5662 20.25C15.7612 20.25 16.1055 20.25 16.5007 19.9613C16.9027 19.6695 19.158 17.856 19.158 17.856C19.158 17.856 19.71 17.3573 19.0687 16.7775C18.4245 16.1978 16.4685 14.9085 16.05 14.5695C15.6307 14.2253 15.0337 14.3767 14.7757 14.61C14.5185 14.8447 14.0587 15.231 14.0025 15.2797C13.9185 15.3442 13.6882 15.5535 13.4302 15.4493C13.1017 15.3195 11.7547 14.5883 10.506 12.8798C9.26471 11.1728 9.12821 10.6147 8.94296 10.0118C8.91154 9.92261 8.91111 9.82548 8.94173 9.73606C8.97236 9.64664 9.03224 9.57017 9.11171 9.519C9.29771 9.39 9.98246 8.81925 9.98246 8.81925C9.98246 8.81925 10.4257 8.382 10.2405 7.86675C10.0552 7.3515 8.81096 4.32975 8.81096 4.32975Z" fill="#1F8E95"/>
</svg>
